<svg width="11" height="18" viewBox="0 0 11 18" fill="none" xmlns="http://www.w3.org/2000/svg">
<path d="M1.07054 9.54661L9.43004 17.5116C9.56952 17.6446 9.75484 17.7188 9.94754 17.7188C10.1402 17.7188 10.3256 17.6446 10.465 17.5116L10.474 17.5026C10.5419 17.4381 10.5959 17.3606 10.6328 17.2746C10.6698 17.1886 10.6888 17.0959 10.6888 17.0024C10.6888 16.9088 10.6698 16.8162 10.6328 16.7302C10.5959 16.6442 10.5419 16.5666 10.474 16.5021L2.60204 9.00211L10.474 1.50511C10.5419 1.44065 10.5959 1.36306 10.6328 1.27706C10.6698 1.19106 10.6888 1.09845 10.6888 1.00486C10.6888 0.911268 10.6698 0.818657 10.6328 0.732658C10.5959 0.646658 10.5419 0.569069 10.474 0.504608L10.465 0.495607C10.3256 0.36264 10.1402 0.288464 9.94754 0.288464C9.75484 0.288464 9.56952 0.36264 9.43004 0.495607L1.07054 8.46061C0.997023 8.53065 0.938494 8.6149 0.898503 8.70824C0.858512 8.80158 0.837891 8.90206 0.837891 9.00361C0.837891 9.10515 0.858512 9.20564 0.898503 9.29898C0.938494 9.39232 0.997023 9.47656 1.07054 9.54661Z" fill="#333333"/>
</svg>
