<svg width="11" height="18" viewBox="0 0 11 18" fill="none" xmlns="http://www.w3.org/2000/svg">
<path d="M9.92946 8.45339L1.56996 0.488393C1.43048 0.355426 1.24516 0.28125 1.05246 0.28125C0.859752 0.28125 0.674441 0.355426 0.534959 0.488393L0.525958 0.497393C0.458105 0.561853 0.404077 0.639442 0.367155 0.725442C0.330235 0.811441 0.311195 0.904053 0.311195 0.997643C0.311195 1.09123 0.330234 1.18384 0.367155 1.26984C0.404077 1.35584 0.458105 1.43343 0.525958 1.49789L8.39796 8.99789L0.525957 16.4949C0.458104 16.5594 0.404076 16.6369 0.367154 16.7229C0.330234 16.8089 0.311195 16.9016 0.311195 16.9951C0.311195 17.0887 0.330234 17.1813 0.367154 17.2673C0.404076 17.3533 0.458104 17.4309 0.525957 17.4954L0.534958 17.5044C0.674441 17.6374 0.859751 17.7115 1.05246 17.7115C1.24516 17.7115 1.43048 17.6374 1.56996 17.5044L9.92946 9.53939C10.003 9.46935 10.0615 9.3851 10.1015 9.29176C10.1415 9.19842 10.1621 9.09794 10.1621 8.99639C10.1621 8.89485 10.1415 8.79436 10.1015 8.70102C10.0615 8.60768 10.003 8.52344 9.92946 8.45339Z" fill="#333333"/>
</svg>
