<svg width="224" height="224" viewBox="0 0 224 224" fill="none" xmlns="http://www.w3.org/2000/svg">
<g clip-path="url(#clip0_3703_5000)">
<rect width="224" height="224" rx="112" fill="white"/>
<circle cx="112" cy="112" r="111.5" fill="#FBFBFB" stroke="#CFCFCF"/>
<mask id="path-3-inside-1_3703_5000" fill="white">
<path fill-rule="evenodd" clip-rule="evenodd" d="M40.0397 197.827C15.5612 177.282 0 146.458 0 112C0 50.1441 50.1441 0 112 0C173.856 0 224 50.1441 224 112C224 146.916 208.023 178.1 182.981 198.64C182.25 163.233 160.699 133.546 131.411 124.123C144.264 117.202 153 103.621 153 88C153 65.3563 134.644 47 112 47C89.3563 47 71 65.3563 71 88C71 103.472 79.5702 116.942 92.2223 123.923C62.8368 133.05 41.0885 162.525 40.0397 197.827Z"/>
</mask>
<path fill-rule="evenodd" clip-rule="evenodd" d="M40.0397 197.827C15.5612 177.282 0 146.458 0 112C0 50.1441 50.1441 0 112 0C173.856 0 224 50.1441 224 112C224 146.916 208.023 178.1 182.981 198.64C182.25 163.233 160.699 133.546 131.411 124.123C144.264 117.202 153 103.621 153 88C153 65.3563 134.644 47 112 47C89.3563 47 71 65.3563 71 88C71 103.472 79.5702 116.942 92.2223 123.923C62.8368 133.05 41.0885 162.525 40.0397 197.827Z" fill="#D2D9E5"/>
<path d="M40.0397 197.827L39.3968 198.593L40.9779 199.92L41.0392 197.857L40.0397 197.827ZM182.981 198.64L181.981 198.661L182.024 200.718L183.615 199.413L182.981 198.64ZM131.411 124.123L130.936 123.243L128.869 124.356L131.104 125.075L131.411 124.123ZM92.2223 123.923L92.5189 124.878L94.7611 124.182L92.7054 123.047L92.2223 123.923ZM-1 112C-1 146.766 14.7017 177.866 39.3968 198.593L40.6825 197.061C16.4208 176.698 1 146.15 1 112H-1ZM112 -1C49.5918 -1 -1 49.5918 -1 112H1C1 50.6964 50.6964 1 112 1V-1ZM225 112C225 49.5918 174.408 -1 112 -1V1C173.304 1 223 50.6964 223 112H225ZM183.615 199.413C208.879 178.691 225 147.228 225 112H223C223 146.604 207.167 177.508 182.347 197.867L183.615 199.413ZM131.104 125.075C159.944 134.353 181.258 163.633 181.981 198.661L183.981 198.619C183.242 162.833 161.455 132.739 131.717 123.171L131.104 125.075ZM131.885 125.004C145.049 117.915 154 104.004 154 88H152C152 103.239 143.479 116.489 130.936 123.243L131.885 125.004ZM154 88C154 64.804 135.196 46 112 46V48C134.091 48 152 65.9086 152 88H154ZM112 46C88.804 46 70 64.804 70 88H72C72 65.9086 89.9086 48 112 48V46ZM70 88C70 103.851 78.7811 117.649 91.7393 124.799L92.7054 123.047C80.3593 116.236 72 103.093 72 88H70ZM41.0392 197.857C42.0768 162.934 63.5855 133.864 92.5189 124.878L91.9257 122.968C62.088 132.235 40.1002 162.117 39.0401 197.797L41.0392 197.857Z" fill="#CFCFCF" mask="url(#path-3-inside-1_3703_5000)"/>
</g>
<defs>
<clipPath id="clip0_3703_5000">
<rect width="224" height="224" rx="112" fill="white"/>
</clipPath>
</defs>
</svg>
