<svg width="40" height="40" viewBox="0 0 40 40" fill="none" xmlns="http://www.w3.org/2000/svg">
<g clip-path="url(#clip0_3703_5006)">
<rect width="40" height="40" rx="20" fill="white"/>
<circle cx="20" cy="20" r="19.5" fill="white" stroke="#CFCFCF"/>
<g clip-path="url(#clip1_3703_5006)">
<path d="M20.4987 25.0443C22.2476 25.0443 23.6654 23.6265 23.6654 21.8776C23.6654 20.1287 22.2476 18.7109 20.4987 18.7109C18.7498 18.7109 17.332 20.1287 17.332 21.8776C17.332 23.6265 18.7498 25.0443 20.4987 25.0443Z" fill="#374957"/>
<path d="M27.625 13.9609H13.375C12.7451 13.9609 12.141 14.2112 11.6956 14.6566C11.2502 15.102 11 15.706 11 16.3359V29.0026H30V16.3359C30 15.706 29.7498 15.102 29.3044 14.6566C28.859 14.2112 28.2549 13.9609 27.625 13.9609ZM20.5 26.6276C19.5605 26.6276 18.6422 26.349 17.861 25.8271C17.0799 25.3051 16.4711 24.5633 16.1116 23.6953C15.7521 22.8274 15.658 21.8723 15.8413 20.9509C16.0245 20.0295 16.4769 19.1831 17.1412 18.5188C17.8055 17.8545 18.6519 17.4021 19.5733 17.2189C20.4947 17.0356 21.4498 17.1297 22.3177 17.4892C23.1857 17.8487 23.9275 18.4575 24.4495 19.2386C24.9714 20.0198 25.25 20.9381 25.25 21.8776C25.2487 23.137 24.7479 24.3444 23.8574 25.235C22.9668 26.1255 21.7594 26.6263 20.5 26.6276V26.6276Z" fill="#374957"/>
<path d="M25.0293 12.375L23.1974 10H17.8038L15.9727 12.375H25.0293Z" fill="#374957"/>
</g>
</g>
<defs>
<clipPath id="clip0_3703_5006">
<rect width="40" height="40" rx="20" fill="white"/>
</clipPath>
<clipPath id="clip1_3703_5006">
<rect width="19" height="19" fill="white" transform="translate(11 10)"/>
</clipPath>
</defs>
</svg>
