<svg width="14" height="14" viewBox="0 0 14 14" fill="none" xmlns="http://www.w3.org/2000/svg">
<path fill-rule="evenodd" clip-rule="evenodd" d="M7.00797 8.88444L11.7227 13.5938C11.9729 13.8437 12.3122 13.9841 12.666 13.9841C13.0198 13.9841 13.3591 13.8437 13.6093 13.5938C13.8595 13.3439 14 13.005 14 12.6516C14 12.2982 13.8595 11.9592 13.6093 11.7093L8.89279 7L13.6084 2.29067C13.7322 2.16693 13.8304 2.02005 13.8974 1.85841C13.9644 1.69676 13.9988 1.52352 13.9988 1.34858C13.9988 1.17363 13.9642 1.00041 13.8972 0.838794C13.8301 0.677181 13.7318 0.530345 13.6079 0.406669C13.4841 0.282993 13.337 0.184899 13.1752 0.117989C13.0134 0.051078 12.8399 0.0166607 12.6648 0.0167019C12.4896 0.0167431 12.3162 0.0512419 12.1544 0.118229C11.9926 0.185216 11.8456 0.283379 11.7218 0.407113L7.00797 5.11644L2.29327 0.407113C2.17031 0.27983 2.0232 0.178281 1.86053 0.108393C1.69786 0.0385044 1.52288 0.00167565 1.34581 5.58617e-05C1.16874 -0.00156393 0.993114 0.0320574 0.829189 0.0989581C0.665264 0.165859 0.516319 0.264699 0.391046 0.389712C0.265772 0.514725 0.166679 0.663407 0.0995472 0.827081C0.0324156 0.990756 -0.00140966 1.16615 4.50015e-05 1.34302C0.00149967 1.51989 0.038205 1.6947 0.10802 1.85725C0.177834 2.0198 0.27936 2.16684 0.406673 2.28978L5.12316 7L0.407562 11.7102C0.280249 11.8332 0.178724 11.9802 0.108909 12.1427C0.0390944 12.3053 0.00238867 12.4801 0.000934001 12.657C-0.000520665 12.8339 0.0333046 13.0092 0.100436 13.1729C0.167568 13.3366 0.266661 13.4853 0.391935 13.6103C0.517208 13.7353 0.666153 13.8341 0.830078 13.901C0.994003 13.9679 1.16963 14.0016 1.3467 13.9999C1.52377 13.9983 1.69875 13.9615 1.86142 13.8916C2.02409 13.8217 2.1712 13.7202 2.29416 13.5929L7.00797 8.88444Z" fill="#778393"/>
</svg>
