<svg width="10" height="10" viewBox="0 0 10 10" fill="none" xmlns="http://www.w3.org/2000/svg">
<g clip-path="url(#clip0_5887_8683)">
<path d="M5.01276 7.91667C5.17697 7.91695 5.33962 7.88477 5.49135 7.82199C5.64309 7.75921 5.78092 7.66706 5.89693 7.55083L7.52984 5.91667L6.94068 5.32917L5.42693 6.84333L5.41609 0H4.58276L4.59359 6.83667L3.08526 5.32833L2.49609 5.91667L4.12901 7.54958C4.24488 7.66596 4.3826 7.7583 4.53426 7.8213C4.68592 7.88429 4.84854 7.9167 5.01276 7.91667Z" fill="#3E495A"/>
<path d="M9.16667 6.66406V8.74739C9.16667 8.8579 9.12277 8.96388 9.04463 9.04202C8.96649 9.12016 8.86051 9.16406 8.75 9.16406H1.25C1.13949 9.16406 1.03351 9.12016 0.955372 9.04202C0.877232 8.96388 0.833333 8.8579 0.833333 8.74739V6.66406H0V8.74739C0 9.07891 0.131696 9.39685 0.366116 9.63127C0.600537 9.86569 0.918479 9.99739 1.25 9.99739H8.75C9.08152 9.99739 9.39946 9.86569 9.63388 9.63127C9.8683 9.39685 10 9.07891 10 8.74739V6.66406H9.16667Z" fill="#3E495A"/>
</g>
<defs>
<clipPath id="clip0_5887_8683">
<rect width="10" height="10" fill="white"/>
</clipPath>
</defs>
</svg>
