<svg width="20" height="20" viewBox="0 0 20 20" fill="none" xmlns="http://www.w3.org/2000/svg">
<path d="M10.0676 3.69141H5.21468C4.84694 3.69141 4.49427 3.83749 4.23424 4.09752C3.97421 4.35755 3.82813 4.71022 3.82812 5.07796V14.7839C3.82813 15.1516 3.97421 15.5043 4.23424 15.7643C4.49427 16.0243 4.84694 16.1704 5.21468 16.1704H14.9206C15.2883 16.1704 15.641 16.0243 15.901 15.7643C16.161 15.5043 16.3071 15.1516 16.3071 14.7839V9.93091" stroke="#3E495A" stroke-width="1.5" stroke-linecap="round" stroke-linejoin="round"/>
<path d="M14.4846 3.43075C14.7604 3.15494 15.1345 3 15.5245 3C15.9146 3 16.2886 3.15494 16.5644 3.43075C16.8402 3.70655 16.9952 4.08062 16.9952 4.47066C16.9952 4.86071 16.8402 5.23478 16.5644 5.51058L10.3159 11.7598C10.1513 11.9243 9.94793 12.0447 9.72455 12.1099L7.73276 12.6923C7.6731 12.7096 7.60987 12.7107 7.54967 12.6953C7.48948 12.6798 7.43453 12.6485 7.39059 12.6046C7.34665 12.5606 7.31533 12.5057 7.29991 12.4455C7.28449 12.3853 7.28553 12.3221 7.30293 12.2624L7.88528 10.2706C7.95081 10.0474 8.07145 9.8443 8.23608 9.67996L14.4846 3.43075Z" stroke="#3E495A" stroke-width="1.5" stroke-linecap="round" stroke-linejoin="round"/>
</svg>
