<svg width="22" height="16" viewBox="0 0 22 16" fill="none" xmlns="http://www.w3.org/2000/svg">
<path d="M15.0019 6H17.0019M15.0019 10H17.0019M5.17188 11C5.37802 10.414 5.76098 9.90646 6.26789 9.54742C6.77481 9.18837 7.38068 8.99554 8.00187 8.99554C8.62307 8.99554 9.22894 9.18837 9.73586 9.54742C10.2428 9.90646 10.6257 10.414 10.8319 11" stroke="black" stroke-width="2" stroke-linecap="round" stroke-linejoin="round"/>
<path d="M8 9C9.10457 9 10 8.10457 10 7C10 5.89543 9.10457 5 8 5C6.89543 5 6 5.89543 6 7C6 8.10457 6.89543 9 8 9Z" stroke="black" stroke-width="2" stroke-linecap="round" stroke-linejoin="round"/>
<path d="M19 1H3C1.89543 1 1 1.89543 1 3V13C1 14.1046 1.89543 15 3 15H19C20.1046 15 21 14.1046 21 13V3C21 1.89543 20.1046 1 19 1Z" stroke="black" stroke-width="2" stroke-linecap="round" stroke-linejoin="round"/>
</svg>
