<svg width="14" height="14" viewBox="0 0 14 14" fill="none" xmlns="http://www.w3.org/2000/svg">
<path fill-rule="evenodd" clip-rule="evenodd" d="M10.207 0C9.55044 0.0102129 8.90816 0.193503 8.34507 0.53136C7.78197 0.869218 7.318 1.34968 7 1.92422C6.682 1.34968 6.21803 0.869218 5.65493 0.53136C5.09184 0.193503 4.44956 0.0102129 3.79296 0C2.74627 0.045476 1.76011 0.503362 1.04994 1.27362C0.339772 2.04388 -0.0366823 3.0639 0.00282275 4.11084C0.00282275 8.06133 6.39125 12.6241 6.66297 12.8177L7 13.0562L7.33703 12.8177C7.60875 12.6252 13.9972 8.06133 13.9972 4.11084C14.0367 3.0639 13.6602 2.04388 12.9501 1.27362C12.2399 0.503362 11.2537 0.045476 10.207 0ZM7 11.6206C5.10318 10.2036 1.16902 6.72254 1.16902 4.11084C1.12916 3.37306 1.38265 2.64944 1.8742 2.09781C2.36575 1.54618 3.05548 1.2113 3.79296 1.1662C4.53044 1.2113 5.22017 1.54618 5.71172 2.09781C6.20327 2.64944 6.45676 3.37306 6.4169 4.11084H7.5831C7.54324 3.37306 7.79673 2.64944 8.28828 2.09781C8.77983 1.54618 9.46956 1.2113 10.207 1.1662C10.9445 1.2113 11.6343 1.54618 12.1258 2.09781C12.6174 2.64944 12.8708 3.37306 12.831 4.11084C12.831 6.7237 8.89682 10.2036 7 11.6206Z" fill="#8B8B8B"/>
</svg>
