<svg width="16" height="14" viewBox="0 0 16 14" fill="none" xmlns="http://www.w3.org/2000/svg">
<path fill-rule="evenodd" clip-rule="evenodd" d="M9.35899 0.536848C9.9279 0.195501 10.5768 0.0103183 11.2402 0C12.2977 0.0459461 13.294 0.50856 14.0115 1.28677C14.729 2.06499 15.1094 3.09555 15.0695 4.1533C15.0695 8.14458 8.61507 12.7556 8.34054 12.95L8.00003 13.191L7.65952 12.95C7.38499 12.7544 0.930586 8.14458 0.930586 4.1533C0.890673 3.09555 1.27102 2.06499 1.98852 1.28677C2.70602 0.50856 3.70236 0.0459461 4.75987 0C5.42325 0.0103183 6.07216 0.195501 6.64107 0.536848C7.20998 0.878195 7.67874 1.36362 8.00003 1.9441C8.32131 1.36362 8.79008 0.878195 9.35899 0.536848Z" fill="#EC221F"/>
</svg>
