<svg width="21" height="19" viewBox="0 0 21 19" fill="none" xmlns="http://www.w3.org/2000/svg">
<path d="M14.8477 0C13.8926 0.0148562 12.9583 0.28148 12.1392 0.772944C11.3201 1.26441 10.6451 1.96331 10.1826 2.79907C9.71998 1.96331 9.04506 1.26441 8.22595 0.772944C7.40684 0.28148 6.47256 0.0148562 5.51744 0C3.99486 0.0661521 2.56035 0.732216 1.5273 1.85268C0.494249 2.97314 -0.0533601 4.45691 0.00410625 5.97984C0.00410625 11.7264 9.29703 18.3636 9.6923 18.6452L10.1826 18.9921L10.6728 18.6452C11.0681 18.3653 20.361 11.7264 20.361 5.97984C20.4185 4.45691 19.8709 2.97314 18.8378 1.85268C17.8048 0.732216 16.3703 0.0661521 14.8477 0V0ZM10.1826 16.9039C7.42335 14.8427 1.70052 9.77895 1.70052 5.97984C1.64253 4.90662 2.01127 3.85401 2.7263 3.05158C3.44134 2.24916 4.44465 1.76202 5.51744 1.69641C6.59022 1.76202 7.59353 2.24916 8.30857 3.05158C9.0236 3.85401 9.39234 4.90662 9.33435 5.97984H11.0308C10.9728 4.90662 11.3415 3.85401 12.0566 3.05158C12.7716 2.24916 13.7749 1.76202 14.8477 1.69641C15.9205 1.76202 16.9238 2.24916 17.6388 3.05158C18.3538 3.85401 18.7226 4.90662 18.6646 5.97984C18.6646 9.78065 12.9418 14.8427 10.1826 16.9039Z" fill="#374957"/>
</svg>
