<svg width="386" height="88" viewBox="0 0 386 88" fill="none" xmlns="http://www.w3.org/2000/svg">
<g clip-path="url(#clip0_2729_5602)">
<path fill-rule="evenodd" clip-rule="evenodd" d="M91.9375 66.6215V21.0508H101.703V66.6215H91.9375Z" fill="#3E495A"/>
<path fill-rule="evenodd" clip-rule="evenodd" d="M172.653 21.3789C160.069 21.3789 149.867 31.5803 149.867 44.1643C149.867 56.7483 160.069 66.9497 172.653 66.9497H179.163C191.747 66.9497 201.948 56.7483 201.948 44.1643C201.948 31.5803 191.747 21.3789 179.163 21.3789H172.653ZM173.955 30.1647C166.225 30.1647 159.959 36.4312 159.959 44.1614C159.959 51.8916 166.225 58.1581 173.955 58.1581H177.861C185.592 58.1581 191.858 51.8916 191.858 44.1614C191.858 36.4312 185.592 30.1647 177.861 30.1647H173.955Z" fill="#3E495A"/>
<path d="M242.296 21.2188C242.375 21.2399 251.71 36.409 270.301 66.7259L270.104 66.7895H257.837L252.788 59.099L219.537 59.0673L214.252 66.7895H202.143L201.945 66.7259L229.872 21.2188H242.296ZM236.064 31.3244L224.428 50.5188L248.252 50.6141L236.064 31.3244Z" fill="#3E495A"/>
<path d="M358.851 21.2188C358.93 21.2399 368.265 36.409 386.856 66.7259L386.659 66.7895H374.392L369.343 59.099L336.092 59.0673L330.806 66.7895H318.697L318.5 66.7259L346.426 21.2188H358.851ZM352.619 31.3244L340.983 50.5188L364.807 50.6141L352.619 31.3244Z" fill="#3E495A"/>
<path fill-rule="evenodd" clip-rule="evenodd" d="M270.312 53.0064V21.2188H280.078V53.0064C280.078 53.7681 280.409 54.8529 281.136 55.6937C281.757 56.4121 282.715 57.0243 284.346 57.0243H315.232V66.7895H284.346C274.797 66.7895 270.312 58.8265 270.312 53.0064Z" fill="#3E495A"/>
<path fill-rule="evenodd" clip-rule="evenodd" d="M132.969 21.0508H134.253H143.919V30.4998H134.253V32.8094C134.253 37.8387 130.374 41.9621 125.445 42.3517V45.3238C130.374 45.7134 134.253 49.8368 134.253 54.8661V57.1456H144.02V66.6191H134.253V66.6247C134.143 66.6247 134.032 66.6228 133.923 66.6191H132.953V66.5371C128.281 65.9026 124.681 61.8979 124.681 57.0523V48.6804H106.789V38.9845H124.681V30.6232C124.681 25.7718 128.29 21.7633 132.969 21.1361V21.0508Z" fill="#3E495A"/>
<path d="M39.6898 66.5767L65.8574 44.9655L39.7473 21.1011L52.7736 21.1329L79.43 44.9655L52.8023 66.5767L39.6898 66.5767Z" fill="#3E495A"/>
<path d="M39.7008 21.146L13.5333 42.7572L39.6433 66.6215L26.6171 66.5898L-0.0393639 42.7572L26.5883 21.146L39.7008 21.146Z" fill="#3E495A"/>
</g>
<defs>
<clipPath id="clip0_2729_5602">
<rect width="386" height="86.257" fill="white" transform="translate(0 0.871094)"/>
</clipPath>
</defs>
</svg>
