<svg width="18" height="18" viewBox="0 0 18 18" fill="none" xmlns="http://www.w3.org/2000/svg">
<path d="M4.94808 2.18182C4.94808 2.00099 5.01914 1.82757 5.14564 1.6997C5.27213 1.57183 5.4437 1.5 5.62259 1.5H11.0187C11.1976 1.5 11.3692 1.57183 11.4957 1.6997C11.6222 1.82757 11.6933 2.00099 11.6933 2.18182C11.6933 2.36265 11.6222 2.53607 11.4957 2.66394C11.3692 2.7918 11.1976 2.86364 11.0187 2.86364H5.62259C5.4437 2.86364 5.27213 2.7918 5.14564 2.66394C5.01914 2.53607 4.94808 2.36265 4.94808 2.18182ZM7.64615 11.7273C7.64615 11.9081 7.71722 12.0815 7.84371 12.2094C7.97021 12.3373 8.14178 12.4091 8.32067 12.4091C8.49956 12.4091 8.67113 12.3373 8.79763 12.2094C8.92412 12.0815 8.99519 11.9081 8.99519 11.7273V7.63636C8.99519 7.45553 8.92412 7.28211 8.79763 7.15424C8.67113 7.02638 8.49956 6.95455 8.32067 6.95455C8.14178 6.95455 7.97021 7.02638 7.84371 7.15424C7.71722 7.28211 7.64615 7.45553 7.64615 7.63636V11.7273ZM8.32067 4.22727C7.52346 4.22727 6.73405 4.38599 5.99753 4.69438C5.261 5.00276 4.59177 5.45476 4.02806 6.02457C3.46434 6.59439 3.01718 7.27085 2.7121 8.01535C2.40702 8.75985 2.25 9.5578 2.25 10.3636C2.25 11.1695 2.40702 11.9674 2.7121 12.7119C3.01718 13.4564 3.46434 14.1329 4.02806 14.7027C4.59177 15.2725 5.261 15.7245 5.99753 16.0329C6.73405 16.3413 7.52346 16.5 8.32067 16.5C9.93071 16.5 11.4748 15.8535 12.6133 14.7027C13.7518 13.5519 14.3913 11.9911 14.3913 10.3636C14.3913 8.73617 13.7518 7.17536 12.6133 6.02457C11.4748 4.87378 9.93071 4.22727 8.32067 4.22727ZM3.59904 10.3636C3.59904 9.73687 3.72117 9.11625 3.95845 8.53719C4.19573 7.95814 4.54353 7.432 4.98197 6.98881C5.42042 6.54562 5.94092 6.19406 6.51378 5.95421C7.08663 5.71436 7.70062 5.59091 8.32067 5.59091C8.94072 5.59091 9.55471 5.71436 10.1276 5.95421C10.7004 6.19406 11.2209 6.54562 11.6594 6.98881C12.0978 7.432 12.4456 7.95814 12.6829 8.53719C12.9202 9.11625 13.0423 9.73687 13.0423 10.3636C13.0423 11.6294 12.5448 12.8434 11.6594 13.7385C10.7739 14.6335 9.57292 15.1364 8.32067 15.1364C7.06842 15.1364 5.86745 14.6335 4.98197 13.7385C4.09649 12.8434 3.59904 11.6294 3.59904 10.3636ZM14.591 6.75409C14.6533 6.81912 14.7278 6.87095 14.8102 6.90656C14.8925 6.94217 14.981 6.96085 15.0706 6.9615C15.1602 6.96216 15.2489 6.94478 15.3318 6.91038C15.4146 6.87598 15.4899 6.82524 15.5531 6.76114C15.6164 6.69703 15.6663 6.62084 15.7001 6.537C15.7339 6.45316 15.7509 6.36336 15.75 6.27283C15.7491 6.18231 15.7303 6.09287 15.6949 6.00973C15.6594 5.9266 15.6079 5.85144 15.5434 5.78864L14.1917 4.42773C14.1294 4.3627 14.0549 4.31087 13.9725 4.27526C13.8902 4.23965 13.8016 4.22097 13.7121 4.22032C13.6225 4.21966 13.5337 4.23704 13.4509 4.27144C13.368 4.30584 13.2928 4.35657 13.2296 4.42068C13.1663 4.48479 13.1164 4.56098 13.0826 4.64482C13.0488 4.72866 13.0318 4.81846 13.0327 4.90898C13.0336 4.99951 13.0523 5.08895 13.0878 5.17208C13.1233 5.25522 13.1748 5.33038 13.2393 5.39318L14.591 6.75409Z" fill="#F88F78"/>
</svg>
