<svg width="30" height="30" viewBox="0 0 30 30" fill="none" xmlns="http://www.w3.org/2000/svg">
<g clip-path="url(#clip0_5271_8221)">
<path d="M19.8125 6H9.1875C8.34241 6.00094 7.5322 6.33706 6.93463 6.93463C6.33706 7.5322 6.00094 8.34241 6 9.1875V19.8125C6.00094 20.6576 6.33706 21.4678 6.93463 22.0654C7.5322 22.6629 8.34241 22.9991 9.1875 23H19.8125C20.6576 22.9991 21.4678 22.6629 22.0654 22.0654C22.6629 21.4678 22.9991 20.6576 23 19.8125V9.1875C22.9991 8.34241 22.6629 7.5322 22.0654 6.93463C21.4678 6.33706 20.6576 6.00094 19.8125 6V6ZM9.1875 8.125H19.8125C20.0943 8.125 20.3645 8.23694 20.5638 8.4362C20.7631 8.63546 20.875 8.90571 20.875 9.1875V19.8125C20.8752 19.952 20.8477 20.0902 20.7942 20.2191C20.7408 20.348 20.6623 20.465 20.5633 20.5633L14.3782 14.3782C13.8468 13.847 13.1263 13.5486 12.375 13.5486C11.6237 13.5486 10.9032 13.847 10.3718 14.3782L8.125 16.625V9.1875C8.125 8.90571 8.23694 8.63546 8.4362 8.4362C8.63546 8.23694 8.90571 8.125 9.1875 8.125Z" fill="#778393"/>
<path d="M16.9779 13.0807C17.9559 13.0807 18.7487 12.2879 18.7487 11.3099C18.7487 10.3319 17.9559 9.53906 16.9779 9.53906C15.9999 9.53906 15.207 10.3319 15.207 11.3099C15.207 12.2879 15.9999 13.0807 16.9779 13.0807Z" fill="#778393"/>
</g>
<defs>
<clipPath id="clip0_5271_8221">
<rect width="17" height="17" fill="white" transform="translate(6 6)"/>
</clipPath>
</defs>
</svg>
