<svg width="27" height="21" viewBox="0 0 27 21" fill="none" xmlns="http://www.w3.org/2000/svg">
<path d="M10.584 1.216V0.0879989H17.736V1.216L15.744 1.432C15.728 2.424 15.712 3.432 15.696 4.456C15.696 5.464 15.696 6.488 15.696 7.528V8.56C15.696 9.568 15.696 10.584 15.696 11.608C15.712 12.616 15.728 13.632 15.744 14.656L17.736 14.872V16H10.584V14.872L12.528 14.656C12.56 13.648 12.576 12.624 12.576 11.584C12.576 10.544 12.576 9.504 12.576 8.464H6.072C6.072 9.616 6.072 10.696 6.072 11.704C6.088 12.712 6.104 13.696 6.12 14.656L8.088 14.872V16H0.936V14.872L2.928 14.656C2.96 13.664 2.976 12.656 2.976 11.632C2.976 10.608 2.976 9.584 2.976 8.56V7.528C2.976 6.52 2.976 5.512 2.976 4.504C2.976 3.48 2.96 2.456 2.928 1.432L0.936 1.216V0.0879989H8.088V1.216L6.12 1.432C6.104 2.424 6.088 3.416 6.072 4.408C6.072 5.4 6.072 6.336 6.072 7.216H12.576C12.576 6.224 12.576 5.248 12.576 4.288C12.576 3.328 12.56 2.376 12.528 1.432L10.584 1.216ZM20.5037 12.208L24.1757 11.344L24.3917 11.512V19.864L26.3357 20.248V20.968H20.2397V20.248L22.2797 19.864V12.952L20.5037 13.12V12.208Z" fill="#778393"/>
</svg>
