<svg width="27" height="21" viewBox="0 0 27 21" fill="none" xmlns="http://www.w3.org/2000/svg">
<path d="M10.584 1.216V0.0879989H17.736V1.216L15.744 1.432C15.728 2.424 15.712 3.432 15.696 4.456C15.696 5.464 15.696 6.488 15.696 7.528V8.56C15.696 9.568 15.696 10.584 15.696 11.608C15.712 12.616 15.728 13.632 15.744 14.656L17.736 14.872V16H10.584V14.872L12.528 14.656C12.56 13.648 12.576 12.624 12.576 11.584C12.576 10.544 12.576 9.504 12.576 8.464H6.072C6.072 9.616 6.072 10.696 6.072 11.704C6.088 12.712 6.104 13.696 6.12 14.656L8.088 14.872V16H0.936V14.872L2.928 14.656C2.96 13.664 2.976 12.656 2.976 11.632C2.976 10.608 2.976 9.584 2.976 8.56V7.528C2.976 6.52 2.976 5.512 2.976 4.504C2.976 3.48 2.96 2.456 2.928 1.432L0.936 1.216V0.0879989H8.088V1.216L6.12 1.432C6.104 2.424 6.088 3.416 6.072 4.408C6.072 5.4 6.072 6.336 6.072 7.216H12.576C12.576 6.224 12.576 5.248 12.576 4.288C12.576 3.328 12.56 2.376 12.528 1.432L10.584 1.216ZM19.8557 20.968V19.696L21.9917 17.632C22.6957 16.96 23.2237 16.344 23.5757 15.784C23.9277 15.208 24.1037 14.6 24.1037 13.96C24.1037 13.352 23.9517 12.896 23.6477 12.592C23.3597 12.288 22.9517 12.136 22.4237 12.136C22.3437 12.136 22.2637 12.136 22.1837 12.136C22.1037 12.136 22.0157 12.144 21.9197 12.16L21.7277 13.144C21.6317 13.64 21.4877 13.976 21.2957 14.152C21.1197 14.312 20.9197 14.392 20.6957 14.392C20.2637 14.392 19.9437 14.192 19.7357 13.792C19.7677 12.944 20.1277 12.32 20.8157 11.92C21.5037 11.52 22.3277 11.32 23.2877 11.32C24.3277 11.32 25.0797 11.576 25.5437 12.088C26.0237 12.6 26.2637 13.184 26.2637 13.84C26.2637 14.544 25.9917 15.224 25.4477 15.88C24.9037 16.52 24.0477 17.288 22.8797 18.184L21.7517 19.12H26.5277V20.968H19.8557Z" fill="#778393"/>
</svg>
