<svg width="30" height="30" viewBox="0 0 30 30" fill="none" xmlns="http://www.w3.org/2000/svg">
<path d="M11.584 6.216V5.088H18.736V6.216L16.744 6.432C16.728 7.424 16.712 8.432 16.696 9.456C16.696 10.464 16.696 11.488 16.696 12.528V13.56C16.696 14.568 16.696 15.584 16.696 16.608C16.712 17.616 16.728 18.632 16.744 19.656L18.736 19.872V21H11.584V19.872L13.528 19.656C13.56 18.648 13.576 17.624 13.576 16.584C13.576 15.544 13.576 14.504 13.576 13.464H7.072C7.072 14.616 7.072 15.696 7.072 16.704C7.088 17.712 7.104 18.696 7.12 19.656L9.088 19.872V21H1.936V19.872L3.928 19.656C3.96 18.664 3.976 17.656 3.976 16.632C3.976 15.608 3.976 14.584 3.976 13.56V12.528C3.976 11.52 3.976 10.512 3.976 9.504C3.976 8.48 3.96 7.456 3.928 6.432L1.936 6.216V5.088H9.088V6.216L7.12 6.432C7.104 7.424 7.088 8.416 7.072 9.408C7.072 10.4 7.072 11.336 7.072 12.216H13.576C13.576 11.224 13.576 10.248 13.576 9.288C13.576 8.328 13.56 7.376 13.528 6.432L11.584 6.216Z" fill="#778393"/>
<path d="M22.7277 20.592H23.2557C24.5197 20.592 25.1517 20.008 25.1517 18.84C25.1517 18.28 24.9997 17.856 24.6957 17.568C24.4077 17.28 24.0077 17.136 23.4957 17.136C23.4317 17.136 23.3677 17.136 23.3037 17.136C23.2397 17.136 23.1677 17.144 23.0877 17.16L22.9197 18.096C22.8557 18.448 22.7197 18.704 22.5117 18.864C22.3197 19.024 22.1117 19.104 21.8877 19.104C21.4877 19.104 21.1997 18.944 21.0237 18.624C21.0717 17.824 21.3917 17.24 21.9837 16.872C22.5917 16.504 23.2877 16.32 24.0717 16.32C25.0797 16.32 25.8557 16.536 26.3997 16.968C26.9597 17.4 27.2397 17.968 27.2397 18.672C27.2397 19.2 27.0717 19.68 26.7357 20.112C26.3997 20.528 25.9197 20.824 25.2957 21C26.8477 21.256 27.6237 22.08 27.6237 23.472C27.6237 24.4 27.2637 25.088 26.5437 25.536C25.8397 25.984 24.9757 26.208 23.9517 26.208C22.9277 26.208 22.1357 26 21.5757 25.584C21.0317 25.168 20.7197 24.584 20.6397 23.832C20.7197 23.592 20.8397 23.424 20.9997 23.328C21.1757 23.232 21.3517 23.184 21.5277 23.184C21.7997 23.184 22.0237 23.264 22.1997 23.424C22.3917 23.6 22.5197 23.928 22.5837 24.408L22.7517 25.368C22.8317 25.384 22.9197 25.392 23.0157 25.392C23.1117 25.408 23.2077 25.416 23.3037 25.416C24.7277 25.416 25.4397 24.736 25.4397 23.376C25.4397 22.784 25.2637 22.328 24.9117 22.008C24.5757 21.688 24.0557 21.528 23.3517 21.528H22.7277V20.592Z" fill="#778393"/>
</svg>
