<svg width="16" height="16" viewBox="0 0 16 16" fill="none" xmlns="http://www.w3.org/2000/svg">
<g clip-path="url(#clip0_5043_7674)">
<path d="M0 5.33073V9.33073H4.66667C4.66561 10.2145 4.31408 11.0617 3.68919 11.6866C3.06429 12.3115 2.21706 12.663 1.33333 12.6641V14.6641C2.74733 14.6625 4.10297 14.1001 5.10282 13.1002C6.10267 12.1004 6.66508 10.7447 6.66667 9.33073V2.66406H2.66667C1.95942 2.66406 1.28115 2.94501 0.781049 3.44511C0.280952 3.94521 0 4.62349 0 5.33073H0Z" fill="#778393"/>
<path d="M11.9987 2.66406C11.2914 2.66406 10.6132 2.94501 10.1131 3.44511C9.61298 3.94521 9.33203 4.62349 9.33203 5.33073V9.33073H13.9987C13.9976 10.2145 13.6461 11.0617 13.0212 11.6866C12.3963 12.3115 11.5491 12.663 10.6654 12.6641V14.6641C12.0794 14.6625 13.435 14.1001 14.4348 13.1002C15.4347 12.1004 15.9971 10.7447 15.9987 9.33073V2.66406H11.9987Z" fill="#778393"/>
</g>
<defs>
<clipPath id="clip0_5043_7674">
<rect width="16" height="16" fill="white"/>
</clipPath>
</defs>
</svg>
