<svg width="30" height="30" viewBox="0 0 30 30" fill="none" xmlns="http://www.w3.org/2000/svg">
<path d="M8.42969 23V6.03125H15.1797C18.9297 6.03125 20.8047 7.83594 20.8047 10.3906C20.8047 12.3828 19.5156 13.625 17.7578 14.0234V14.1875C19.6797 14.2812 21.4844 15.8047 21.4844 18.3125C21.4844 21.0078 19.4688 23 15.625 23H8.42969ZM14.9219 20.0938C16.9609 20.0938 17.8281 19.25 17.8281 17.9844C17.8281 16.5547 16.75 15.5469 15.0156 15.5469H11.9453V20.0938H14.9219ZM14.6641 13.1328C16.1406 13.1328 17.2422 12.3125 17.2422 10.9531C17.2422 9.73438 16.3516 8.89062 14.7344 8.89062H11.9453V13.1328H14.6641Z" fill="#778393"/>
</svg>
