<svg width="30" height="30" viewBox="0 0 30 30" fill="none" xmlns="http://www.w3.org/2000/svg">
<path d="M6.99999 11.3329V15.3329H11.6667C11.6656 16.2166 11.3141 17.0639 10.6892 17.6888C10.0643 18.3137 9.21706 18.6652 8.33333 18.6663V20.6663C9.74733 20.6647 11.103 20.1022 12.1028 19.1024C13.1027 18.1025 13.6651 16.7469 13.6667 15.3329V8.66625H9.66666C8.95942 8.66625 8.28114 8.9472 7.78104 9.4473C7.28095 9.9474 6.99999 10.6257 6.99999 11.3329Z" fill="#778393"/>
<path d="M18.9999 8.66625C18.2927 8.66625 17.6144 8.9472 17.1143 9.4473C16.6142 9.9474 16.3333 10.6257 16.3333 11.3329V15.3329H20.9999C20.9989 16.2166 20.6473 17.0639 20.0225 17.6888C19.3976 18.3137 18.5503 18.6652 17.6666 18.6663V20.6663C19.0806 20.6647 20.4362 20.1022 21.4361 19.1024C22.4359 18.1025 22.9983 16.7469 22.9999 15.3329V8.66625H18.9999Z" fill="#778393"/>
</svg>
