<svg width="30" height="30" viewBox="0 0 30 30" fill="none" xmlns="http://www.w3.org/2000/svg">
<path d="M11.584 6.216V5.088H18.736V6.216L16.744 6.432C16.728 7.424 16.712 8.432 16.696 9.456C16.696 10.464 16.696 11.488 16.696 12.528V13.56C16.696 14.568 16.696 15.584 16.696 16.608C16.712 17.616 16.728 18.632 16.744 19.656L18.736 19.872V21H11.584V19.872L13.528 19.656C13.56 18.648 13.576 17.624 13.576 16.584C13.576 15.544 13.576 14.504 13.576 13.464H7.072C7.072 14.616 7.072 15.696 7.072 16.704C7.088 17.712 7.104 18.696 7.12 19.656L9.088 19.872V21H1.936V19.872L3.928 19.656C3.96 18.664 3.976 17.656 3.976 16.632C3.976 15.608 3.976 14.584 3.976 13.56V12.528C3.976 11.52 3.976 10.512 3.976 9.504C3.976 8.48 3.96 7.456 3.928 6.432L1.936 6.216V5.088H9.088V6.216L7.12 6.432C7.104 7.424 7.088 8.416 7.072 9.408C7.072 10.4 7.072 11.336 7.072 12.216H13.576C13.576 11.224 13.576 10.248 13.576 9.288C13.576 8.328 13.56 7.376 13.528 6.432L11.584 6.216Z" fill="#778393"/>
<path d="M20.8557 25.968V24.696L22.9917 22.632C23.6957 21.96 24.2237 21.344 24.5757 20.784C24.9277 20.208 25.1037 19.6 25.1037 18.96C25.1037 18.352 24.9517 17.896 24.6477 17.592C24.3597 17.288 23.9517 17.136 23.4237 17.136C23.3437 17.136 23.2637 17.136 23.1837 17.136C23.1037 17.136 23.0157 17.144 22.9197 17.16L22.7277 18.144C22.6317 18.64 22.4877 18.976 22.2957 19.152C22.1197 19.312 21.9197 19.392 21.6957 19.392C21.2637 19.392 20.9437 19.192 20.7357 18.792C20.7677 17.944 21.1277 17.32 21.8157 16.92C22.5037 16.52 23.3277 16.32 24.2877 16.32C25.3277 16.32 26.0797 16.576 26.5437 17.088C27.0237 17.6 27.2637 18.184 27.2637 18.84C27.2637 19.544 26.9917 20.224 26.4477 20.88C25.9037 21.52 25.0477 22.288 23.8797 23.184L22.7517 24.12H27.5277V25.968H20.8557Z" fill="#778393"/>
</svg>
