<svg width="30" height="30" viewBox="0 0 30 30" fill="none" xmlns="http://www.w3.org/2000/svg">
<path d="M10.42 22.122L5.127 16.829C4.89478 16.5968 4.71057 16.3212 4.5849 16.0179C4.45922 15.7145 4.39453 15.3894 4.39453 15.061C4.39453 14.7326 4.45922 14.4075 4.5849 14.1041C4.71057 13.8008 4.89478 13.5252 5.127 13.293L10.42 8L12.541 10.122L7.598 15.061L12.537 20L10.42 22.122Z" fill="#778393"/>
<path d="M19.164 22.122L17.043 20L21.982 15.061L17.043 10.122L19.164 8L24.457 13.293C24.6892 13.5252 24.8734 13.8008 24.9991 14.1041C25.1247 14.4075 25.1894 14.7326 25.1894 15.061C25.1894 15.3894 25.1247 15.7145 24.9991 16.0179C24.8734 16.3212 24.6892 16.5968 24.457 16.829L19.164 22.122Z" fill="#778393"/>
</svg>
