<svg width="14" height="17" viewBox="0 0 14 17" fill="none" xmlns="http://www.w3.org/2000/svg">
<path d="M0.429688 17V0.03125H7.17969C10.9297 0.03125 12.8047 1.83594 12.8047 4.39062C12.8047 6.38281 11.5156 7.625 9.75781 8.02344V8.1875C11.6797 8.28125 13.4844 9.80469 13.4844 12.3125C13.4844 15.0078 11.4688 17 7.625 17H0.429688ZM6.92188 14.0938C8.96094 14.0938 9.82812 13.25 9.82812 11.9844C9.82812 10.5547 8.75 9.54688 7.01562 9.54688H3.94531V14.0938H6.92188ZM6.66406 7.13281C8.14062 7.13281 9.24219 6.3125 9.24219 4.95312C9.24219 3.73438 8.35156 2.89062 6.73438 2.89062H3.94531V7.13281H6.66406Z" fill="#778393"/>
</svg>
