<svg width="22" height="16" viewBox="0 0 22 16" fill="none" xmlns="http://www.w3.org/2000/svg">
<path d="M6.42 15.0595L1.127 9.7665C0.894781 9.53435 0.710574 9.25872 0.584896 8.95536C0.459218 8.652 0.394531 8.32686 0.394531 7.9985C0.394531 7.67014 0.459218 7.345 0.584896 7.04164C0.710574 6.73828 0.894781 6.46266 1.127 6.2305L6.42 0.9375L8.541 3.0595L3.598 7.9985L8.537 12.9375L6.42 15.0595Z" fill="#778393"/>
<path d="M15.164 15.0595L13.043 12.9375L17.982 7.9985L13.043 3.0595L15.164 0.9375L20.457 6.2305C20.6892 6.46266 20.8734 6.73828 20.9991 7.04164C21.1247 7.345 21.1894 7.67014 21.1894 7.9985C21.1894 8.32686 21.1247 8.652 20.9991 8.95536C20.8734 9.25872 20.6892 9.53435 20.457 9.7665L15.164 15.0595Z" fill="#778393"/>
</svg>
