<svg width="27" height="22" viewBox="0 0 27 22" fill="none" xmlns="http://www.w3.org/2000/svg">
<path d="M10.584 1.216V0.0879989H17.736V1.216L15.744 1.432C15.728 2.424 15.712 3.432 15.696 4.456C15.696 5.464 15.696 6.488 15.696 7.528V8.56C15.696 9.568 15.696 10.584 15.696 11.608C15.712 12.616 15.728 13.632 15.744 14.656L17.736 14.872V16H10.584V14.872L12.528 14.656C12.56 13.648 12.576 12.624 12.576 11.584C12.576 10.544 12.576 9.504 12.576 8.464H6.072C6.072 9.616 6.072 10.696 6.072 11.704C6.088 12.712 6.104 13.696 6.12 14.656L8.088 14.872V16H0.936V14.872L2.928 14.656C2.96 13.664 2.976 12.656 2.976 11.632C2.976 10.608 2.976 9.584 2.976 8.56V7.528C2.976 6.52 2.976 5.512 2.976 4.504C2.976 3.48 2.96 2.456 2.928 1.432L0.936 1.216V0.0879989H8.088V1.216L6.12 1.432C6.104 2.424 6.088 3.416 6.072 4.408C6.072 5.4 6.072 6.336 6.072 7.216H12.576C12.576 6.224 12.576 5.248 12.576 4.288C12.576 3.328 12.56 2.376 12.528 1.432L10.584 1.216ZM21.7277 15.592H22.2557C23.5197 15.592 24.1517 15.008 24.1517 13.84C24.1517 13.28 23.9997 12.856 23.6957 12.568C23.4077 12.28 23.0077 12.136 22.4957 12.136C22.4317 12.136 22.3677 12.136 22.3037 12.136C22.2397 12.136 22.1677 12.144 22.0877 12.16L21.9197 13.096C21.8557 13.448 21.7197 13.704 21.5117 13.864C21.3197 14.024 21.1117 14.104 20.8877 14.104C20.4877 14.104 20.1997 13.944 20.0237 13.624C20.0717 12.824 20.3917 12.24 20.9837 11.872C21.5917 11.504 22.2877 11.32 23.0717 11.32C24.0797 11.32 24.8557 11.536 25.3997 11.968C25.9597 12.4 26.2397 12.968 26.2397 13.672C26.2397 14.2 26.0717 14.68 25.7357 15.112C25.3997 15.528 24.9197 15.824 24.2957 16C25.8477 16.256 26.6237 17.08 26.6237 18.472C26.6237 19.4 26.2637 20.088 25.5437 20.536C24.8397 20.984 23.9757 21.208 22.9517 21.208C21.9277 21.208 21.1357 21 20.5757 20.584C20.0317 20.168 19.7197 19.584 19.6397 18.832C19.7197 18.592 19.8397 18.424 19.9997 18.328C20.1757 18.232 20.3517 18.184 20.5277 18.184C20.7997 18.184 21.0237 18.264 21.1997 18.424C21.3917 18.6 21.5197 18.928 21.5837 19.408L21.7517 20.368C21.8317 20.384 21.9197 20.392 22.0157 20.392C22.1117 20.408 22.2077 20.416 22.3037 20.416C23.7277 20.416 24.4397 19.736 24.4397 18.376C24.4397 17.784 24.2637 17.328 23.9117 17.008C23.5757 16.688 23.0557 16.528 22.3517 16.528H21.7277V15.592Z" fill="#778393"/>
</svg>
