<svg width="30" height="30" viewBox="0 0 30 30" fill="none" xmlns="http://www.w3.org/2000/svg">
<path d="M12.584 6.216V5.088H19.736V6.216L17.744 6.432C17.728 7.424 17.712 8.432 17.696 9.456C17.696 10.464 17.696 11.488 17.696 12.528V13.56C17.696 14.568 17.696 15.584 17.696 16.608C17.712 17.616 17.728 18.632 17.744 19.656L19.736 19.872V21H12.584V19.872L14.528 19.656C14.56 18.648 14.576 17.624 14.576 16.584C14.576 15.544 14.576 14.504 14.576 13.464H8.072C8.072 14.616 8.072 15.696 8.072 16.704C8.088 17.712 8.104 18.696 8.12 19.656L10.088 19.872V21H2.936V19.872L4.928 19.656C4.96 18.664 4.976 17.656 4.976 16.632C4.976 15.608 4.976 14.584 4.976 13.56V12.528C4.976 11.52 4.976 10.512 4.976 9.504C4.976 8.48 4.96 7.456 4.928 6.432L2.936 6.216V5.088H10.088V6.216L8.12 6.432C8.104 7.424 8.088 8.416 8.072 9.408C8.072 10.4 8.072 11.336 8.072 12.216H14.576C14.576 11.224 14.576 10.248 14.576 9.288C14.576 8.328 14.56 7.376 14.528 6.432L12.584 6.216Z" fill="#778393"/>
<path d="M22.5037 17.208L26.1757 16.344L26.3917 16.512V24.864L28.3357 25.248V25.968H22.2397V25.248L24.2797 24.864V17.952L22.5037 18.12V17.208Z" fill="#778393"/>
</svg>
