<svg width="17" height="17" viewBox="0 0 17 17" fill="none" xmlns="http://www.w3.org/2000/svg">
<g clip-path="url(#clip0_5152_8244)">
<path d="M14.8743 2.83333H12.6785C12.5141 2.03392 12.0791 1.31562 11.4469 0.799509C10.8147 0.283397 10.0238 0.00103029 9.20768 0L7.79102 0C6.97487 0.00103029 6.18403 0.283397 5.5518 0.799509C4.91956 1.31562 4.48458 2.03392 4.32018 2.83333H2.12435C1.93649 2.83333 1.75632 2.90796 1.62348 3.0408C1.49064 3.17364 1.41602 3.3538 1.41602 3.54167C1.41602 3.72953 1.49064 3.9097 1.62348 4.04253C1.75632 4.17537 1.93649 4.25 2.12435 4.25H2.83268V13.4583C2.83381 14.3973 3.20731 15.2975 3.87125 15.9614C4.5352 16.6254 5.43539 16.9989 6.37435 17H10.6243C11.5633 16.9989 12.4635 16.6254 13.1274 15.9614C13.7914 15.2975 14.1649 14.3973 14.166 13.4583V4.25H14.8743C15.0622 4.25 15.2424 4.17537 15.3752 4.04253C15.5081 3.9097 15.5827 3.72953 15.5827 3.54167C15.5827 3.3538 15.5081 3.17364 15.3752 3.0408C15.2424 2.90796 15.0622 2.83333 14.8743 2.83333V2.83333ZM7.79102 1.41667H9.20768C9.64704 1.4172 10.0755 1.55364 10.4342 1.80727C10.793 2.0609 11.0645 2.41931 11.2116 2.83333H5.78714C5.93418 2.41931 6.2057 2.0609 6.56446 1.80727C6.92322 1.55364 7.35166 1.4172 7.79102 1.41667V1.41667ZM12.7493 13.4583C12.7493 14.0219 12.5255 14.5624 12.127 14.9609C11.7284 15.3594 11.1879 15.5833 10.6243 15.5833H6.37435C5.81076 15.5833 5.27026 15.3594 4.87175 14.9609C4.47323 14.5624 4.24935 14.0219 4.24935 13.4583V4.25H12.7493V13.4583Z" fill="#171717"/>
<path d="M7.08333 12.7526C7.27119 12.7526 7.45136 12.678 7.5842 12.5451C7.71704 12.4123 7.79166 12.2321 7.79166 12.0443V7.79427C7.79166 7.60641 7.71704 7.42624 7.5842 7.2934C7.45136 7.16057 7.27119 7.08594 7.08333 7.08594C6.89547 7.08594 6.7153 7.16057 6.58247 7.2934C6.44963 7.42624 6.375 7.60641 6.375 7.79427V12.0443C6.375 12.2321 6.44963 12.4123 6.58247 12.5451C6.7153 12.678 6.89547 12.7526 7.08333 12.7526Z" fill="#171717"/>
<path d="M9.91732 12.7526C10.1052 12.7526 10.2854 12.678 10.4182 12.5451C10.551 12.4123 10.6257 12.2321 10.6257 12.0443V7.79427C10.6257 7.60641 10.551 7.42624 10.4182 7.2934C10.2854 7.16057 10.1052 7.08594 9.91732 7.08594C9.72946 7.08594 9.54929 7.16057 9.41645 7.2934C9.28361 7.42624 9.20898 7.60641 9.20898 7.79427V12.0443C9.20898 12.2321 9.28361 12.4123 9.41645 12.5451C9.54929 12.678 9.72946 12.7526 9.91732 12.7526Z" fill="#171717"/>
</g>
<defs>
<clipPath id="clip0_5152_8244">
<rect width="17" height="17" fill="white"/>
</clipPath>
</defs>
</svg>
