<svg width="24" height="24" viewBox="0 0 24 24" fill="none" xmlns="http://www.w3.org/2000/svg">
<path d="M16.375 9.3V7.5C16.375 6.30653 15.9141 5.16193 15.0936 4.31802C14.2731 3.47411 13.1603 3 12 3C10.8397 3 9.72688 3.47411 8.90641 4.31802C8.08594 5.16193 7.625 6.30653 7.625 7.5V9.3C6.92881 9.3 6.26113 9.58446 5.76884 10.0908C5.27656 10.5972 5 11.2839 5 12V18.3C5 19.0161 5.27656 19.7028 5.76884 20.2092C6.26113 20.7155 6.92881 21 7.625 21H16.375C17.0712 21 17.7389 20.7155 18.2312 20.2092C18.7234 19.7028 19 19.0161 19 18.3V12C19 11.2839 18.7234 10.5972 18.2312 10.0908C17.7389 9.58446 17.0712 9.3 16.375 9.3ZM9.375 7.5C9.375 6.78392 9.65156 6.09716 10.1438 5.59081C10.6361 5.08446 11.3038 4.8 12 4.8C12.6962 4.8 13.3639 5.08446 13.8562 5.59081C14.3484 6.09716 14.625 6.78392 14.625 7.5V9.3H9.375V7.5ZM17.25 18.3C17.25 18.5387 17.1578 18.7676 16.9937 18.9364C16.8296 19.1052 16.6071 19.2 16.375 19.2H7.625C7.39294 19.2 7.17038 19.1052 7.00628 18.9364C6.84219 18.7676 6.75 18.5387 6.75 18.3V12C6.75 11.7613 6.84219 11.5324 7.00628 11.3636C7.17038 11.1948 7.39294 11.1 7.625 11.1H16.375C16.6071 11.1 16.8296 11.1948 16.9937 11.3636C17.1578 11.5324 17.25 11.7613 17.25 12V18.3Z" fill="#CFCFCF"/>
</svg>
